<svg width="417" height="64" viewBox="0 0 417 64" fill="none" xmlns="http://www.w3.org/2000/svg">
<path d="M14.5566 4.24403C15.1109 3.99679 16.4192 3.73686 17.541 4.56337C18.9772 5.62158 18.8273 7.13303 18.8271 7.43641L18.1641 14.1854L14.5967 16.246C12.023 17.7319 10.4375 20.4783 10.4375 23.4501V23.8837H8.45508C7.45295 23.8839 6.64062 24.6959 6.64062 25.6981V34.6972C6.64082 35.6992 7.45306 36.5114 8.45508 36.5116H10.4375V36.5126L13.7744 42.5888C14.5846 44.0642 16.1341 44.9812 17.8174 44.9813H28.9639V36.5126H28.9658V44.9813H40.1123C41.7956 44.9812 43.3451 44.0642 44.1553 42.5888L47.4922 36.5126H47.5693V36.5106C48.5629 36.5006 49.365 35.6931 49.3652 34.6972V25.6981C49.3652 24.702 48.5631 23.8937 47.5693 23.8837V23.4501C47.5693 20.4783 45.9838 17.7319 43.4102 16.246L39.915 14.2274L39.248 7.43837L39.25 7.43641C39.2499 7.13337 39.0617 5.62176 40.498 4.56337C41.603 3.74929 42.9233 4.02507 43.4941 4.27137L51.4775 8.88075C55.5016 11.2042 57.9805 15.4978 57.9805 20.1444V38.5868C57.9805 43.2335 55.5017 47.528 51.4775 49.8515L35.5049 59.0731C31.4809 61.3962 26.523 61.3962 22.499 59.0731L6.52637 49.8515C2.50223 47.528 0.0234375 43.2335 0.0234375 38.5868V20.1444C0.0234375 15.4978 2.50238 11.2042 6.52637 8.88075L14.5566 4.24403Z" fill="white"/>
<g clip-path="url(#clip0_457_451)">
<path d="M36.4326 24.0364C38.8548 24.0364 40.8183 25.9999 40.8184 28.4221C40.8184 29.4808 40.4429 30.4514 39.8184 31.2092C37.9654 29.9162 35.2264 28.9689 32.0508 28.5969C32.0485 28.539 32.0469 28.4806 32.0469 28.4221C32.047 26 34.0105 24.0365 36.4326 24.0364Z" fill="white"/>
<path d="M19.6436 24.0364C22.0658 24.0364 24.0292 25.9999 24.0293 28.4221C24.0293 28.5912 24.0186 28.758 24 28.9221C21.0637 29.5295 18.654 30.6529 17.207 32.0686C16.0319 31.2818 15.2578 29.9425 15.2578 28.4221C15.2579 26 17.2214 24.0365 19.6436 24.0364Z" fill="white"/>
</g>
<path d="M110.8 15.9V21.084C112.272 21.084 113.488 21.5 114.448 22.332C115.44 23.164 115.936 24.396 115.936 26.028V44.364C115.904 45.836 115.488 47.068 114.688 48.06C113.888 49.02 112.672 49.5 111.04 49.5H95.968V44.316C94.24 44.316 92.96 43.868 92.128 42.972C91.296 42.076 90.88 40.908 90.88 39.468V20.748C90.88 19.116 91.36 17.9 92.32 17.1C93.28 16.3 94.496 15.9 95.968 15.9H110.8ZM110.8 21.132H96.016V44.316H110.8V21.132ZM126.765 33.9C125.293 33.9 124.077 33.484 123.117 32.652C122.157 31.82 121.677 30.588 121.677 28.956V24.3H126.813V33.9H138.093V24.3H143.229V28.956C143.229 30.588 142.733 31.82 141.741 32.652C140.781 33.484 139.581 33.9 138.141 33.9V39.132C139.581 39.132 140.781 39.548 141.741 40.38C142.733 41.212 143.229 42.444 143.229 44.076V49.5H138.093V39.132H126.813V49.5H121.677V44.076C121.677 42.444 122.157 41.212 123.117 40.38C124.077 39.548 125.293 39.132 126.765 39.132V33.9ZM154.141 24.3V41.964H166.093V24.348H171.229V51.948H166.141C166.109 53.452 165.693 54.684 164.893 55.644C164.093 56.636 162.877 57.132 161.245 57.132H149.101V51.948H166.093V47.148H153.757C152.125 47.148 150.925 46.652 150.157 45.66C149.389 44.668 149.005 43.436 149.005 41.964V24.3H154.141ZM177.469 57.132V51.948H194.509V47.004H181.741C180.109 47.004 178.909 46.508 178.141 45.516C177.373 44.524 176.989 43.292 176.989 41.82V29.484C176.989 27.98 177.373 26.732 178.141 25.74C178.909 24.748 180.109 24.252 181.741 24.252H194.893C196.301 24.252 197.437 24.684 198.301 25.548C199.197 26.38 199.645 27.692 199.645 29.484V51.948H194.509C194.509 53.452 194.109 54.684 193.309 55.644C192.509 56.636 191.293 57.132 189.661 57.132H177.469ZM182.125 41.772H194.509V29.484H182.125V41.772ZM210.484 24.348H223.252C224.788 24.476 225.924 24.988 226.66 25.884C227.396 26.748 227.764 27.852 227.764 29.196V34.668C227.764 36.3 227.284 37.516 226.324 38.316C225.364 39.084 224.148 39.468 222.676 39.468H210.532V44.316H225.652V49.5H215.284C213.652 49.5 212.42 49.004 211.588 48.012C210.788 47.02 210.388 45.788 210.388 44.316H205.396V29.148C205.396 27.516 205.876 26.316 206.836 25.548C207.796 24.748 209.012 24.348 210.484 24.348ZM210.532 34.284H222.676V29.532H210.532V34.284ZM238.561 24.252H250.081V29.484C251.553 29.484 252.769 29.9 253.729 30.732C254.689 31.564 255.169 32.796 255.169 34.428V49.5H250.081V29.484H238.657V49.5H233.521V29.484H238.561V24.252ZM292.911 15.9V21.084H298.047V49.5H292.911V37.836H278.079V49.5H272.943V21.084H278.079V15.9H292.911ZM278.079 32.652H292.911V21.132H278.079V32.652ZM308.634 49.5C307.002 49.5 305.786 49.004 304.986 48.012C304.186 47.02 303.786 45.772 303.786 44.268V15.468H308.922V24.348H315.978V29.532H308.922V44.268H318.186V49.5H308.634ZM338.103 29.436H342.903V24.3H352.167V29.484C353.639 29.484 354.839 29.9 355.767 30.732C356.727 31.564 357.207 32.796 357.207 34.428V49.5H352.119V29.484H343.095V49.5H337.959V29.484H329.079V49.5H323.943V34.428C323.943 32.796 324.423 31.564 325.383 30.732C326.343 29.9 327.559 29.484 329.031 29.484V24.3H338.103V29.436ZM380.845 29.436H385.981V44.316C385.981 46.076 385.533 47.388 384.637 48.252C383.773 49.084 382.637 49.5 381.229 49.5H372.877C371.245 49.5 370.045 49.02 369.277 48.06C368.509 47.068 368.125 45.82 368.125 44.316H362.989V29.484C362.989 27.98 363.373 26.732 364.141 25.74C364.909 24.748 366.109 24.252 367.741 24.252H376.093C377.501 24.252 378.637 24.684 379.501 25.548C380.397 26.38 380.845 27.676 380.845 29.436ZM380.845 29.484H368.125V44.316H380.845V29.484ZM391.724 29.484C391.724 27.98 392.124 26.748 392.924 25.788C393.724 24.796 394.94 24.3 396.572 24.3H412.652V29.484H396.86V34.38H408.524C410.156 34.38 411.372 34.876 412.172 35.868C412.972 36.828 413.372 38.06 413.372 39.564V44.316C413.372 45.788 412.972 47.02 412.172 48.012C411.372 49.004 410.156 49.5 408.524 49.5H392.396V44.316H408.284V39.564H396.86V34.38H391.724V29.484Z" fill="white"/>
<defs>
<clipPath id="clip0_457_451">
<rect width="25.5593" height="8.77184" fill="white" transform="translate(15.2578 24.0361)"/>
</clipPath>
</defs>
</svg>
