<svg width="209" height="32" viewBox="0 0 209 32" fill="none" xmlns="http://www.w3.org/2000/svg">
<path d="M7.27734 2.12207C7.55398 1.99836 8.2091 1.8678 8.77051 2.28125C9.30947 2.67838 9.4017 3.20363 9.41406 3.50488L9.41309 3.71875L9.08203 7.09277L7.29785 8.12305C6.01131 8.86599 5.21885 10.239 5.21875 11.7246V11.9414H4.72754C4.22663 11.9415 3.82057 12.3478 3.82031 12.8486V17.3486C3.82041 17.8496 4.22653 18.2557 4.72754 18.2559H5.21875L6.88672 21.2949C7.29186 22.0326 8.06754 22.4912 8.90918 22.4912H20.0557C20.8973 22.4912 21.673 22.0327 22.0781 21.2949L23.7461 18.2559H24.2754C24.7765 18.2558 25.1825 17.8497 25.1826 17.3486V12.8486C25.1824 12.3477 24.7764 11.9414 24.2754 11.9414H23.7842V11.7246C23.7841 10.2388 22.9918 8.86595 21.7051 8.12305L19.957 7.11328L19.624 3.71973L19.625 3.71875C19.625 3.56751 19.5306 2.81059 20.249 2.28125C20.802 1.87403 21.4631 2.01252 21.748 2.13574L25.7383 4.44043C27.7504 5.60213 28.9902 7.74887 28.9902 10.0723V19.2939C28.9901 21.6172 27.7503 23.7641 25.7383 24.9258L17.7529 29.5361C15.7408 30.6978 13.2611 30.6978 11.249 29.5361L3.26367 24.9258C1.25163 23.7641 0.0118116 21.6172 0.0117188 19.2939V10.0723C0.0117188 7.74887 1.25156 5.60213 3.26367 4.44043L7.27734 2.12207Z" fill="black"/>
<g clip-path="url(#clip0_459_1501)">
<path d="M18.7168 12.0182C19.9278 12.0184 20.9092 13.0005 20.9092 14.2115C20.9091 14.8501 20.6338 15.4222 20.1982 15.8229C19.3703 15.1384 18.0724 14.6149 16.5312 14.3678C16.5276 14.3161 16.5234 14.2641 16.5234 14.2115C16.5234 13.0004 17.5057 12.0182 18.7168 12.0182Z" fill="black"/>
<path d="M10.3223 12.0182C11.5332 12.0184 12.5146 13.0005 12.5146 14.2115C12.5146 14.2638 12.5104 14.3155 12.5068 14.3668C10.9651 14.6137 9.66638 15.1374 8.83789 15.8219C8.40325 15.4213 8.12902 14.8492 8.12891 14.2115C8.12891 13.0004 9.11113 12.0182 10.3223 12.0182Z" fill="black"/>
</g>
<path d="M55.4 7.45V10.042C56.136 10.042 56.744 10.25 57.224 10.666C57.72 11.082 57.968 11.698 57.968 12.514V21.682C57.952 22.418 57.744 23.034 57.344 23.53C56.944 24.01 56.336 24.25 55.52 24.25H47.984V21.658C47.12 21.658 46.48 21.434 46.064 20.986C45.648 20.538 45.44 19.954 45.44 19.234V9.874C45.44 9.058 45.68 8.45 46.16 8.05C46.64 7.65 47.248 7.45 47.984 7.45H55.4ZM55.4 10.066H48.008V21.658H55.4V10.066ZM63.3824 16.45C62.6464 16.45 62.0384 16.242 61.5584 15.826C61.0784 15.41 60.8384 14.794 60.8384 13.978V11.65H63.4064V16.45H69.0464V11.65H71.6144V13.978C71.6144 14.794 71.3664 15.41 70.8704 15.826C70.3904 16.242 69.7904 16.45 69.0704 16.45V19.066C69.7904 19.066 70.3904 19.274 70.8704 19.69C71.3664 20.106 71.6144 20.722 71.6144 21.538V24.25H69.0464V19.066H63.4064V24.25H60.8384V21.538C60.8384 20.722 61.0784 20.106 61.5584 19.69C62.0384 19.274 62.6464 19.066 63.3824 19.066V16.45ZM77.0705 11.65V20.482H83.0465V11.674H85.6145V25.474H83.0705C83.0545 26.226 82.8465 26.842 82.4465 27.322C82.0465 27.818 81.4385 28.066 80.6225 28.066H74.5505V25.474H83.0465V23.074H76.8785C76.0625 23.074 75.4625 22.826 75.0785 22.33C74.6945 21.834 74.5025 21.218 74.5025 20.482V11.65H77.0705ZM88.7347 28.066V25.474H97.2547V23.002H90.8707C90.0547 23.002 89.4547 22.754 89.0707 22.258C88.6867 21.762 88.4947 21.146 88.4947 20.41V14.242C88.4947 13.49 88.6867 12.866 89.0707 12.37C89.4547 11.874 90.0547 11.626 90.8707 11.626H97.4467C98.1507 11.626 98.7187 11.842 99.1507 12.274C99.5987 12.69 99.8227 13.346 99.8227 14.242V25.474H97.2547C97.2547 26.226 97.0547 26.842 96.6547 27.322C96.2547 27.818 95.6467 28.066 94.8307 28.066H88.7347ZM91.0627 20.386H97.2547V14.242H91.0627V20.386ZM105.242 11.674H111.626C112.394 11.738 112.962 11.994 113.33 12.442C113.698 12.874 113.882 13.426 113.882 14.098V16.834C113.882 17.65 113.642 18.258 113.162 18.658C112.682 19.042 112.074 19.234 111.338 19.234H105.266V21.658H112.826V24.25H107.642C106.826 24.25 106.21 24.002 105.794 23.506C105.394 23.01 105.194 22.394 105.194 21.658H102.698V14.074C102.698 13.258 102.938 12.658 103.418 12.274C103.898 11.874 104.506 11.674 105.242 11.674ZM105.266 16.642H111.338V14.266H105.266V16.642ZM119.28 11.626H125.04V14.242C125.776 14.242 126.384 14.45 126.864 14.866C127.344 15.282 127.584 15.898 127.584 16.714V24.25H125.04V14.242H119.328V24.25H116.76V14.242H119.28V11.626ZM146.455 7.45V10.042H149.023V24.25H146.455V18.418H139.039V24.25H136.471V10.042H139.039V7.45H146.455ZM139.039 15.826H146.455V10.066H139.039V15.826ZM154.317 24.25C153.501 24.25 152.893 24.002 152.493 23.506C152.093 23.01 151.893 22.386 151.893 21.634V7.234H154.461V11.674H157.989V14.266H154.461V21.634H159.093V24.25H154.317ZM169.051 14.218H171.451V11.65H176.083V14.242C176.819 14.242 177.419 14.45 177.883 14.866C178.363 15.282 178.603 15.898 178.603 16.714V24.25H176.059V14.242H171.547V24.25H168.979V14.242H164.539V24.25H161.971V16.714C161.971 15.898 162.211 15.282 162.691 14.866C163.171 14.45 163.779 14.242 164.515 14.242V11.65H169.051V14.218ZM190.423 14.218H192.991V21.658C192.991 22.538 192.767 23.194 192.319 23.626C191.887 24.042 191.319 24.25 190.615 24.25H186.439C185.623 24.25 185.023 24.01 184.639 23.53C184.255 23.034 184.063 22.41 184.063 21.658H181.495V14.242C181.495 13.49 181.687 12.866 182.071 12.37C182.455 11.874 183.055 11.626 183.871 11.626H188.047C188.751 11.626 189.319 11.842 189.751 12.274C190.199 12.69 190.423 13.338 190.423 14.218ZM190.423 14.242H184.063V21.658H190.423V14.242ZM195.862 14.242C195.862 13.49 196.062 12.874 196.462 12.394C196.862 11.898 197.47 11.65 198.286 11.65H206.326V14.242H198.43V16.69H204.262C205.078 16.69 205.686 16.938 206.086 17.434C206.486 17.914 206.686 18.53 206.686 19.282V21.658C206.686 22.394 206.486 23.01 206.086 23.506C205.686 24.002 205.078 24.25 204.262 24.25H196.198V21.658H204.142V19.282H198.43V16.69H195.862V14.242Z" fill="black"/>
<defs>
<clipPath id="clip0_459_1501">
<rect width="12.7797" height="4.38592" fill="white" transform="translate(8.12891 12.0181)"/>
</clipPath>
</defs>
</svg>
